<?xml version="1.0" standalone="no"?>
<!DOCTYPE svg PUBLIC "-//W3C//DTD SVG 20010904//EN"
 "http://www.w3.org/TR/2001/REC-SVG-20010904/DTD/svg10.dtd">
<svg version="1.0" xmlns="http://www.w3.org/2000/svg"
 width="500.000000pt" height="500.000000pt" viewBox="0 0 500.000000 500.000000"
 preserveAspectRatio="xMidYMid meet">

<g transform="translate(0.000000,500.000000) scale(0.100000,-0.100000)"
fill="#000000" stroke="none">
<path d="M0 2500 l0 -2500 2500 0 2500 0 0 2500 0 2500 -2500 0 -2500 0 0
-2500z m3204 2238 c14 -19 16 -74 16 -395 l0 -372 83 -3 82 -3 -1 -37 c-2 -73
57 -68 -785 -68 -753 0 -759 0 -780 21 -14 14 -19 30 -17 52 l3 32 83 3 82 3
0 372 c0 321 2 376 16 395 l15 22 594 0 594 0 15 -22z m672 -428 c43 0 45 -18
2 -22 -29 -3 -33 -7 -36 -35 -2 -18 -7 -33 -12 -33 -5 0 -10 15 -12 33 -3 28
-7 32 -36 35 -39 4 -33 22 9 22 25 0 29 4 29 28 0 43 15 49 18 8 3 -34 5 -36
38 -36z m-1986 -70 c0 -6 -19 -18 -42 -27 -112 -44 -308 -162 -425 -255 -34
-26 -64 -44 -67 -39 -14 23 229 189 399 272 127 62 135 65 135 49z m1551 -55
c384 -193 682 -495 870 -881 61 -125 66 -138 49 -132 -6 2 -30 46 -53 98 -176
389 -507 723 -904 912 -56 27 -103 54 -103 59 0 11 28 0 141 -56z m-2431 -166
c0 -25 4 -29 29 -29 17 0 33 -4 36 -10 4 -6 -8 -10 -29 -10 -34 0 -36 -2 -36
-35 0 -44 -18 -46 -22 -2 -3 28 -7 32 -35 35 -44 4 -42 22 2 22 33 0 35 2 35
36 0 21 4 33 10 29 6 -3 10 -19 10 -36z m300 -147 c0 -4 -25 -32 -55 -62 -30
-30 -55 -48 -55 -40 0 8 21 36 47 62 45 46 63 57 63 40z m-198 -224 c-109
-139 -222 -336 -282 -493 -26 -67 -40 -89 -40 -61 0 28 56 162 116 275 84 159
242 381 252 353 2 -6 -19 -39 -46 -74z m1906 -241 l3 -46 47 -3 c59 -4 57 -22
-2 -26 l-45 -3 -3 -46 c-4 -64 -26 -68 -30 -6 l-3 48 -47 3 c-33 2 -48 8 -48
17 0 9 15 15 48 17 l47 3 3 48 c4 62 26 58 30 -6z m1401 -381 c23 -75 26 -95
12 -80 -9 9 -51 138 -51 157 0 26 19 -12 39 -77z m-2749 3 c0 -12 8 -23 20
-26 11 -3 20 -9 20 -14 0 -5 -9 -9 -20 -9 -14 0 -20 -7 -20 -21 0 -12 -5 -19
-12 -16 -7 2 -13 10 -13 18 0 8 -10 15 -23 17 -13 2 -21 9 -19 15 3 7 10 11
16 9 6 -1 16 9 21 23 12 30 30 33 30 4z m-480 -48 c6 -13 10 -192 10 -512 0
-444 -2 -494 -17 -511 -15 -17 -40 -18 -376 -18 -321 0 -362 2 -379 17 -17 15
-18 44 -18 510 0 322 4 501 10 514 10 18 25 19 385 19 360 0 375 -1 385 -19z
m1488 -129 c89 -41 114 -164 57 -277 -36 -72 -80 -105 -139 -105 -80 0 -144
70 -168 183 -33 158 104 267 250 199z m2013 -11 c18 -22 19 -44 19 -372 0
-336 -1 -350 -20 -369 -18 -18 -33 -20 -193 -20 -140 0 -177 3 -195 16 l-22
15 0 359 0 359 27 21 c26 20 36 21 196 18 164 -3 169 -4 188 -27z m-1950 -441
c123 -46 173 -111 174 -223 0 -56 -3 -71 -19 -83 -16 -11 -74 -14 -303 -14
-275 0 -284 1 -304 21 -19 19 -21 30 -17 83 9 107 49 161 153 207 97 43 219
47 316 9z m1693 -427 c-25 -102 -131 -364 -153 -378 -19 -11 -12 9 33 106 24
52 58 140 76 197 18 56 37 102 42 102 4 0 5 -12 2 -27z m-3613 -150 c19 -61
102 -232 153 -317 132 -222 344 -448 546 -583 39 -25 70 -50 70 -56 0 -14 -25
-2 -104 53 -231 159 -447 408 -585 671 -47 90 -111 239 -111 259 0 24 20 7 31
-27z m2489 -84 c0 -12 7 -19 20 -19 11 0 20 -4 20 -10 0 -5 -9 -10 -19 -10
-12 0 -21 -8 -23 -20 -4 -29 -22 -30 -26 -2 -2 14 -10 22 -23 22 -10 0 -19 5
-19 10 0 6 9 10 20 10 11 0 21 5 21 10 1 6 3 15 4 20 1 6 3 13 4 16 3 13 21
-9 21 -27z m-1762 -192 l3 -47 45 0 c32 0 44 -4 44 -15 0 -11 -12 -15 -45 -15
l-45 0 0 -37 c0 -21 -4 -44 -9 -51 -13 -21 -30 8 -28 48 2 34 1 35 -42 40 -62
7 -67 30 -7 30 48 0 50 2 46 52 -1 15 2 32 5 38 14 23 30 2 33 -43z m2698 -22
c-13 -34 -79 -129 -83 -119 -5 14 66 134 79 134 6 0 8 -7 4 -15z m-1578 -181
c30 -21 45 -51 52 -104 l5 -44 282 1 c241 2 285 0 298 -13 13 -13 15 -83 15
-523 0 -381 -3 -510 -12 -519 -8 -8 -56 -12 -148 -12 l-136 0 -49 50 -49 50
-321 0 -321 0 -49 -50 -49 -50 -136 0 c-92 0 -140 4 -148 12 -9 9 -12 139 -12
525 0 478 1 513 18 521 9 5 134 10 277 10 143 0 270 0 281 1 18 1 22 9 26 53
4 42 11 57 37 80 36 32 102 38 139 12z m1462 6 c0 -16 -144 -182 -226 -260
-104 -99 -234 -195 -364 -269 -120 -69 -140 -78 -140 -62 0 6 28 25 62 42 211
107 458 308 598 488 52 67 70 83 70 61z m80 -285 l0 -45 44 0 c63 0 79 -32 18
-36 -15 -1 -35 -2 -44 -3 -14 -1 -18 -10 -18 -46 0 -33 -4 -45 -15 -45 -11 0
-15 12 -15 45 l0 45 -37 0 c-21 0 -44 4 -52 9 -24 15 -1 31 45 31 l44 0 0 45
c0 33 4 45 15 45 11 0 15 -12 15 -45z m-2480 -266 c75 -38 108 -69 58 -53 -37
11 -148 75 -148 85 0 14 4 12 90 -32z"/>
<path d="M2001 4721 c-6 -10 -7 -21 -4 -25 3 -3 274 -6 600 -6 l594 0 -3 23
-3 22 -587 3 c-566 2 -588 1 -597 -17z"/>
<path d="M1992 4318 l3 -343 600 0 600 0 0 340 0 340 -603 3 -602 2 2 -342z"/>
<path d="M1832 3918 l3 -33 740 -3 c407 -1 750 0 763 3 17 4 22 13 22 35 l0
30 -766 0 -765 0 3 -32z"/>
<path d="M434 2956 c-3 -14 -3 -30 1 -35 4 -8 125 -11 371 -11 328 0 365 2
371 16 3 9 2 24 -4 33 -9 14 -52 16 -371 19 l-362 2 -6 -24z"/>
<path d="M792 2882 l-362 -2 2 -392 3 -392 370 0 370 -1 3 392 c2 308 0 392
-10 394 -7 2 -176 3 -376 1z"/>
<path d="M437 2063 c-11 -10 -8 -62 3 -84 10 -18 25 -19 365 -19 347 0 355 0
365 20 6 12 10 35 8 53 l-3 32 -366 3 c-201 1 -368 -1 -372 -5z m391 -46 c4
-20 -25 -34 -40 -19 -15 15 -1 44 19 40 10 -2 19 -11 21 -21z"/>
<path d="M2546 2840 c-67 -21 -101 -79 -93 -161 12 -139 120 -225 204 -163 60
43 97 166 73 238 -22 68 -110 109 -184 86z"/>
<path d="M4312 2828 c-7 -7 -12 -20 -12 -30 0 -17 14 -18 189 -18 113 0 192 4
196 10 3 5 1 19 -5 30 -10 19 -20 20 -183 20 -121 0 -177 -4 -185 -12z"/>
<path d="M4300 2493 l0 -258 192 1 193 0 3 257 2 257 -195 0 -195 0 0 -257z"/>
<path d="M4307 2204 c-12 -12 -8 -79 5 -92 8 -8 63 -12 179 -12 190 0 202 4
197 69 l-3 36 -186 3 c-102 1 -188 -1 -192 -4z m221 -47 c4 -20 -25 -34 -40
-19 -15 15 -1 44 19 40 10 -2 19 -11 21 -21z"/>
<path d="M2497 2389 c-132 -31 -201 -108 -195 -217 l3 -57 290 0 290 0 3 55
c2 41 -3 66 -20 100 -50 99 -223 154 -371 119z"/>
<path d="M2545 1317 c-20 -17 -28 -35 -32 -70 l-6 -47 97 0 96 0 0 30 c0 38
-24 86 -49 100 -32 17 -78 11 -106 -13z m76 -27 c23 -13 25 -43 3 -61 -31 -26
-70 25 -44 56 15 18 16 18 41 5z"/>
<path d="M1920 1135 l0 -35 283 2 282 3 0 30 0 30 -282 3 -283 2 0 -35z"/>
<path d="M2520 1135 l0 -35 85 0 85 0 0 35 0 35 -85 0 -85 0 0 -35z"/>
<path d="M2720 1135 l0 -35 285 0 285 0 0 35 0 35 -285 0 -285 0 0 -35z"/>
<path d="M1912 703 l3 -368 690 0 690 0 2 350 c1 193 0 358 -3 368 -5 16 -47
17 -695 17 l-689 0 2 -367z"/>
<path d="M1920 230 l0 -80 128 0 128 0 49 50 49 50 331 0 331 0 49 -50 49 -50
128 0 128 0 0 80 0 80 -685 0 -685 0 0 -80z"/>
</g>
</svg>
